<svg width="40px" height="40px" viewBox="0 0 40 40" version="1.1" xmlns="http://www.w3.org/2000/svg" xmlns:xlink="http://www.w3.org/1999/xlink">
    <g id="Page-1" stroke="none" stroke-width="1" fill="none" fill-rule="evenodd">
        <circle id="Oval" stroke="#000000" stroke-width="4" cx="20" cy="20" r="18"></circle>
        <g id="?" transform="translate(14.212500, 10.649997)" fill="#000000" fill-rule="nonzero">
            <path d="M7.27500119,13.4750022 C7.27500119,12.5500021 7.3000012,12.250002 7.77500127,11.4750019 C8.15000134,10.9000018 8.67500142,10.4500017 9.45000155,9.62500158 C10.6500017,8.35000137 11.5750019,6.90000113 11.5750019,5.07500083 C11.5750019,3.95000065 11.1500018,2.75000045 10.4250017,1.90000031 C9.32500153,0.55000009 7.55000124,0 5.65000093,0 C4.5,0 3.30000054,0.350000057 2.35000039,0.97500016 C1.05000017,1.8250003 0.200000033,3.40000056 0,5.17500085 L3.60000059,5.17500085 C3.57500059,4.52500074 3.80000062,3.97500065 4.2750007,3.62500059 C4.65000076,3.32500055 5.22500086,3.20000052 5.80000095,3.20000052 C6.55000107,3.20000052 7.25000119,3.42500056 7.65000125,3.97500065 C7.90000129,4.3000007 7.97500131,4.72500077 7.97500131,5.17500085 C7.97500131,6.05000099 7.80000128,6.7250011 7.12500117,7.47500123 C5.80000095,8.87500145 5.07500083,9.05000148 4.45000073,10.3250017 C3.92500064,11.2250018 3.6750006,12.375002 3.6750006,13.4750022 L7.27500119,13.4750022 Z M7.27500119,18.350003 L7.27500119,14.7500024 L3.70000061,14.7500024 L3.70000061,18.350003 L7.27500119,18.350003 Z" id="Shape"></path>
        </g>
    </g>
</svg>
